<?xml version="1.0" standalone="no"?><!DOCTYPE svg PUBLIC "-//W3C//DTD SVG 1.1//EN" "http://www.w3.org/Graphics/SVG/1.1/DTD/svg11.dtd"><svg t="1629353702895" class="icon" viewBox="0 0 1024 1024" version="1.1" xmlns="http://www.w3.org/2000/svg" p-id="1277" xmlns:xlink="http://www.w3.org/1999/xlink" width="200" height="200"><defs><style type="text/css"></style></defs><path d="M516.750222 312.888889c-75.292444 0-140.401778 48.526222-184.32 92.216889a568.376889 568.376889 0 0 0-71.395555 87.352889 196.664889 196.664889 0 0 0-1.052445 1.621333l-0.284444 0.455111-0.085334 0.142222v0.028445h-0.028444l20.110222 12.544-20.110222-12.515556a23.694222 23.694222 0 0 0 0 25.031111l20.110222-12.515555-20.110222 12.515555v0.028445l0.028444 0.056889 0.085334 0.142222 0.284444 0.455111 1.052445 1.621333 3.84 5.802667a568.632889 568.632889 0 0 0 67.527111 81.521778c43.946667 43.719111 109.056 92.245333 184.32 92.245333 75.292444 0 140.401778-48.526222 184.32-92.245333a568.462222 568.462222 0 0 0 71.395555-87.324445l1.052445-1.621333 0.284444-0.455111 0.085334-0.142222 0.028444-0.056889-20.110222-12.515556 20.138666 12.515556a23.722667 23.722667 0 0 0 0-25.031111l-20.138666 12.515555c20.138667-12.515556 20.110222-12.515556 20.110222-12.544l-0.028444-0.056889-0.085334-0.142222-0.284444-0.455111c-0.256-0.398222-0.568889-0.938667-1.052445-1.621333a519.168 519.168 0 0 0-18.346666-26.083556 568.206222 568.206222 0 0 0-53.020445-61.269333C657.123556 361.443556 592.014222 312.888889 516.750222 312.888889z m-199.452444 206.819555c-3.527111-4.693333-6.542222-8.903111-9.045334-12.458666a520.533333 520.533333 0 0 1 57.6-68.551111c41.841778-41.585778 95.260444-78.392889 150.897778-78.392889 55.637333 0 109.027556 36.807111 150.869334 78.421333a520.903111 520.903111 0 0 1 57.6 68.551111 521.187556 521.187556 0 0 1-57.6 68.551111c-41.813333 41.585778-95.232 78.392889-150.869334 78.392889-55.637333 0-109.056-36.807111-150.897778-78.449778a520.817778 520.817778 0 0 1-48.554666-56.064zM519.111111 426.666667a82.972444 82.972444 0 1 0 0 165.916444 82.972444 82.972444 0 0 0 0-165.916444zM483.555556 509.639111a35.555556 35.555556 0 1 1 71.111111 0 35.555556 35.555556 0 0 1-71.111111 0z" p-id="1278"></path></svg>